<?xml version="1.0" encoding="UTF-8"?>
<!-- Generator: Adobe Illustrator 22.0.1, SVG Export Plug-In . SVG Version: 6.00 Build 0)  -->
<svg xmlns="http://www.w3.org/2000/svg" xmlns:xlink="http://www.w3.org/1999/xlink" xmlns:dc="http://purl.org/dc/elements/1.1/" xmlns:cc="http://creativecommons.org/ns#" xmlns:rdf="http://www.w3.org/1999/02/22-rdf-syntax-ns#" version="1.1" id="designs" x="0px" y="0px" width="32px" height="32px" viewBox="0 0 32 32" style="enable-background:new 0 0 32 32;" xml:space="preserve">
<title property="dc:title">to calculate</title><desc property="dc:description">An icon for "calculate" from the Science and Fiction series on to [icon]. Downloaded from http://www.toicon.com/icons/science-and-fiction_calculate by 181.59.57.126 on 2018-02-07. Licensed CC-BY, see http://toicon.com/license/ for details.</desc>
<path class="scienceandfiction_een" d="M9,4v25h15V4H9z M23,28H10V13h13V28z M23,12H10V5h13V12z" style="fill: #2B4099;"/>
<path class="scienceandfiction_twee" d="M22,6H11v5h11V6z M21,10h-9V7h9V10z M18,19h-3v3h3V19z M17,21h-1v-1h1V21z M22,19h-3v3h3V19  z M21,21h-1v-1h1V21z M14,19h-3v3h3V19z M13,21h-1v-1h1V21z M18,15h-3v3h3V15z M17,17h-1v-1h1V17z M22,15h-3v3h3V15z M21,17h-1v-1h1  V17z M14,15h-3v3h3V15z M13,17h-1v-1h1V17z M18,23h-3v3h3V23z M17,25h-1v-1h1V25z M22,23h-3v3h3V23z M21,25h-1v-1h1V25z M14,23h-3v3  h3V23z M13,25h-1v-1h1V25z" style="fill: #CC2954;"/>
<metadata><work rdf:about=""><format>image/svg+xml</format><type rdf:resource="http://purl.org/dc/dcmitype/StillImage"/><license rdf:resource="http://creativecommons.org/licenses/by/4.0/"/><attributionname>Kamila Piątkowska</attributionname><attributionurl>http://www.toicon.com/icons/science-and-fiction_calculate</attributionurl></work></metadata></svg>
